Patient4_TMGait_0pt7_01_left_08_EMG.mot
version=1
nRows=37
nColumns=33
inDegrees=no
endheader
time	1LAddLong	2LGlutMax	3LGlutMed	4LIliopsoas	5LSemiMemb	6LBicFemLong	7LRecFem	8LVastMed	9LVastLat	10LGasMed	11LTibAnt	12lTibPost	13LPeroneusLong	14LSol	15LExtDigLong	16LFlexDigLong	17RAddLong	18RGlutMax	19RGlutMed	20RIliopsoas	21RSemiMemb	22RBicFemLong	23RRecFem	24RVastMed	25RVastLat	26RGasMed	27RTibAnt	28RTibPost	29RPeroneusLong	30RSol	31RExtDigLong	32RFlexDigLong
9.607	-0.037384	0.77637	-0.010529	0.024567	-0.003357	0.63385	0.10101	0.036621	-0.43518	-0.042725	0.078583	-0.037384	-0.34821	-0.041504	-0.1741	-0.001373	0.010529	-0.16876	0.054626	0.014038	-0.028381	0.49011	0.51682	0.12634	-0.013275	-0.039368	0.1239	-0.036011	0.12756	-0.059814	0.007172	-0.027924
9.608	-0.020294	0.78262	-0.009155	-0.001373	-0.095825	0.56473	0.094147	0.033722	-0.23804	-0.12161	-0.082703	-0.021515	0.021362	0.07843	0.25177	-0.001373	-0.017242	-0.15793	-0.036621	0.041809	-0.037994	0.43213	0.54398	0.037079	-0.023193	-0.02533	-0.024414	-0.029602	0.26977	0.19653	-0.002441	-0.010986
9.609	-0.077667	0.78751	-0.027924	-0.006866	-0.10239	0.38788	0.08316	0.022583	-0.16846	-0.066528	-0.057983	-0.023346	-0.065613	-0.099945	0.20279	-0.004578	-0.021515	-0.16495	0.035553	-0.031128	-0.045776	0.40894	0.58945	-0.019379	-0.051727	-0.014343	-0.075226	-0.028687	0.38223	0.30121	-0.001831	-0.015564
9.61	0.003204	0.76553	-0.062866	-0.008392	-0.042419	0.43579	0.027924	0.009613	-0.26245	-0.020447	-0.046844	-0.018311	0.020447	-0.14404	0.021057	-0.006714	-0.001526	-0.1355	0.055237	-0.016022	-0.047455	0.36987	0.68695	-0.027924	-0.037994	-0.016479	-0.062714	-0.053253	0.57022	0.33737	-0.001831	-0.004272
9.611	0.019836	0.77087	0.023651	-0.02121	-0.021362	0.42526	-0.046997	-0.007019	-0.32684	-0.024567	-0.046692	-0.01358	0.39825	-0.14984	-0.032959	0.003967	0.007477	-0.10239	-0.15182	0.04303	-0.074158	0.30701	0.77011	-0.077057	-0.053711	-0.011444	-0.036011	-0.066833	0.62103	0.28397	-0.003967	-0.00946
9.612	0.030518	0.73288	-0.026398	-0.001678	0.067291	-0.42328	-0.10651	-0.035248	-0.47333	-0.070496	0.035706	-0.016479	0.70145	-0.072174	0.022888	-0.006256	-0.066071	-0.13062	-0.056305	0.084381	-0.081329	0.26962	0.81818	-0.11093	-0.049591	-0.011597	-0.078735	-0.051117	-0.095978	0.069885	-0.002289	-0.006256
9.613	0.038452	0.70801	-0.035858	-0.002441	0.15213	-0.86746	-0.20706	-0.018616	-0.48553	-0.062103	0.034332	0.007019	0.067444	-0.024109	0.090332	0.000458	-0.077972	-0.10284	0.009003	0.16235	-0.10147	0.2272	0.81573	-0.121	-0.044556	-0.015717	-0.075989	-0.023651	-0.71549	-0.32532	-0.002899	-0.014038
9.614	0.046844	0.68893	-0.023956	0.006561	0.039978	-0.58563	-0.24124	-0.001831	-0.35721	-0.1178	-0.10681	0.013123	-0.42557	-0.018311	0.11704	0.029755	-0.05188	-0.12894	-0.13886	0.18005	-0.10162	0.21652	0.80551	-0.12131	-0.048218	-0.015259	0.039978	-0.026398	-0.21759	-0.48065	-0.002594	-0.010529
9.615	0.039215	0.68222	-0.07309	0.00061	-0.011597	-0.84946	-0.20798	0.007782	-0.31754	-0.060272	-0.086975	0.009308	-0.11139	-0.29953	-0.066986	0.013733	-0.080566	-0.1062	-0.29785	0.14862	-0.099182	0.19043	0.8223	-0.14099	-0.055695	-0.014954	0.10361	-0.042877	0.56107	0.055084	-0.001831	-0.012817
9.616	0.041351	0.62424	-0.08667	0.010529	0.00061	-0.53513	-0.14206	-0.006104	-0.35034	-0.029602	0.052643	0.022736	-0.19089	-0.065765	-0.068359	0.013275	-0.006561	0.009918	-0.21759	0.06073	-0.11261	0.16174	0.87219	-0.1445	-0.051575	-0.024414	0.0914	-0.021057	0.62912	0.40512	-0.00351	-0.000916
9.617	0.016479	0.67886	-0.021667	0.010986	0.001221	-0.21378	-0.1947	0.000305	-0.3978	-0.02182	0.080872	0.029755	-0.049744	0.037384	0.17838	0.02243	0.028992	0.068665	-0.12161	-0.09201	-0.11017	0.14648	0.81207	-0.16647	-0.029144	-0.020905	0.053101	0.060577	0.56671	0.3746	0.000763	-0.002289
9.618	0.015106	0.62424	0.009155	0.018005	-0.059052	-0.13062	-0.25131	0.011139	-0.36011	-0.014496	0.089111	0.040741	0.10773	-0.059662	0.24139	0.003357	0.046082	0.081482	-0.052338	-0.17502	-0.098877	0.14236	0.75531	-0.16647	-0.034637	0.035553	-0.1387	0.044861	-0.4248	0.058289	-0.002899	0.004425
9.619	0.024567	0.62653	-0.002289	-0.011139	-0.074463	-0.15945	-0.31235	0.001373	-0.2475	-0.040588	-0.064087	0.051117	-0.50598	-0.10208	0.27466	0.009308	0.08667	0.057678	-0.034637	-0.15503	-0.080109	0.10895	0.83328	-0.1416	-0.046539	0.03891	-0.00824	0.005035	-1.8936	-0.015717	-0.001831	0.001831
9.62	0.031433	0.62775	0.019379	-0.028229	0.019531	-0.16846	-0.31616	0.005188	-0.17685	-0.032654	-0.17792	0.060883	0.26993	-0.23361	0.055084	0.027466	0.054169	0.12344	-0.10101	0.079346	-0.06897	0.082092	0.84427	-0.12329	-0.048676	0.034027	0.049133	-0.014801	-1.5205	0.089264	-0.00351	-0.007935
9.621	0.032501	0.68115	-0.035248	-0.010223	0.007019	-0.15747	-0.30838	0.010529	-0.20233	-0.014648	-0.0737	0.065155	0.5925	-0.26566	-0.12375	0.031433	0.055237	0.11963	-0.27832	0.21484	-0.066833	0.056763	0.86884	-0.12985	-0.040588	0.024719	-0.08316	-0.001678	1.218	0.084229	0.001984	-0.007019
9.622	0.024719	0.71625	0.030823	0.017395	0.015411	-0.06485	-0.32547	0.013123	-0.16449	-0.036926	0.062561	0.078278	0.87204	-0.19394	-0.10666	0.027924	0.045471	0.13886	-0.25314	0.14954	-0.080719	0.025024	0.88608	-0.15457	-0.040894	0.00061	-0.059662	-0.005646	1.3631	0.088806	-0.001373	-0.003967
9.623	0.007019	0.68695	0.029449	0.002747	-0.001068	0.11139	-0.33218	0.006714	-0.084839	-0.046997	0.08667	0.076599	0.20569	-0.059052	-0.11688	0.035095	-0.015259	0.14801	-0.19012	0.02533	-0.075073	0.019226	0.71243	-0.20889	-0.037384	-0.007324	-0.003662	-0.014954	0.15717	0.009613	-0.003052	-0.012665
9.624	0.00412	0.77652	0.17914	0.012817	-0.018005	0.096893	-0.23956	-0.006714	0.027313	0.000916	0.097046	0.081177	-0.29739	0.031128	-0.071411	0.042267	-0.047913	0.2298	-0.20889	0.037079	-0.068207	0.019531	0.62454	-0.21439	-0.054169	0.004425	0.014191	-0.021362	-0.28168	0.044708	-0.001221	-0.001831
9.625	0.001221	0.82382	0.021973	0.005341	-0.040894	0.13351	-0.21286	-0.018005	0.046692	0.014954	0.024567	0.088806	-0.088348	0.034332	-0.13565	0.013123	-0.000305	0.28961	-0.25055	0.068817	-0.062103	0.001678	0.61417	-0.14633	-0.046387	-0.008545	0.11093	-0.003052	-1.0889	0.18463	-0.001068	-0.009918
9.626	-0.016785	0.9346	0.000305	0.005493	-0.10925	0.18234	-0.20432	-0.01297	0.023651	0.007782	-0.053864	0.096893	-0.13138	-0.01709	-0.13809	0.011292	0.059052	0.37064	-0.23621	0.11551	-0.071411	-0.023499	0.52811	-0.17181	-0.030975	0.012512	0.17487	-0.013885	-1.8518	-0.034027	-0.003815	-0.016174
9.627	-0.017548	0.94589	-0.088348	0.023346	-0.17029	0.18433	-0.16541	0.020905	0.007629	-0.018921	0.000153	0.098419	0.10971	-0.031128	-0.032043	0.012054	0.088043	0.40314	-0.23468	0.12863	-0.071716	-0.033875	0.6279	-0.18509	-0.027618	0.018768	0.12253	0.029144	-1.5776	-0.41641	0.001373	-0.015106
9.628	-0.03479	0.89172	-0.002441	0.008545	-0.1944	0.26093	-0.086975	0.020294	0.026703	-0.026093	-0.032196	0.090027	-0.46982	-0.082855	-0.02243	0.018616	0.10651	0.40482	-0.31357	0.11032	-0.06897	-0.064087	0.72845	-0.16846	-0.012665	0.017853	0.052032	-0.39047	-1.5332	-0.4248	-0.001678	-0.021667
9.629	-0.026093	0.87875	0.090027	-0.007782	-0.10666	0.16007	-0.049286	0.004578	0.06424	-0.035553	0.01236	0.097198	-0.56549	-0.028381	0.056305	0.007019	0.075378	0.4039	-0.25513	0.097046	-0.057373	-0.045471	0.77316	-0.11566	-0.015717	0.023804	-0.04303	-0.3717	-1.3065	-0.22232	0.001373	-0.014343
9.63	-0.033112	0.88943	0.22812	-0.005493	-0.076904	-0.10101	-0.058441	-0.008545	0.042114	-0.023346	0.034637	0.10849	-0.12909	-0.0354	0.049286	0.020447	0.052338	0.4538	-0.31723	0.062866	-0.008545	-0.053711	0.87875	-0.028839	0.010223	0.015564	-0.11093	0.17548	-0.49362	0.25696	0.002136	-0.010376
9.631	-0.034485	0.87906	0.1889	0.013885	-0.1004	-0.007019	-0.11185	-0.00824	0.075989	-0.10346	-0.061951	0.098877	-0.037079	0.24887	-0.077515	0.024261	0.048981	0.53604	-0.43289	0.019836	0.040131	-0.057831	0.8342	0.049286	0.032959	-0.036316	0.019073	0.087128	0.18982	0.60257	-0.001221	-0.025787
9.632	0.008392	0.82108	0.021362	0.007172	-0.037842	0.031128	-0.12573	0.001678	0.17792	-0.11459	-0.16815	0.098419	-0.40695	0.40787	-0.040436	0.013428	0.025787	0.59921	-0.51712	0.041809	0.057373	-0.13702	0.75195	0.041199	0.03891	-0.067749	-0.069733	0.093231	0.81497	0.59204	-0.002441	-0.02182
9.633	0.046539	0.83099	-0.021515	0.029907	0.060425	0.19302	-0.19501	0.002899	0.22903	-0.008087	-0.19928	0.075073	-0.32822	0.11398	-0.006256	-0.001831	0.064697	0.61066	-0.56702	0.020599	0.054779	-0.17548	0.8136	0.042419	0.028687	-0.045319	-0.23209	0.075531	1.0762	1.2395	-0.001373	-0.017395
9.634	0.035248	0.86411	-0.16419	0.030365	0.031281	0.31662	-0.23239	0.003052	0.28702	-0.013275	-0.14114	0.070953	-0.13199	0.033417	0.32562	0.012665	0.12711	0.62363	-0.64041	-0.041046	0.028229	-0.20218	0.92056	0.001221	0.019531	-0.040894	-0.1976	0.0914	1.8738	1.3539	-0.006866	-0.015564
9.635	0.018311	0.93033	-0.14328	0.004578	0.003967	0.075531	-0.18066	0.011444	0.31052	-0.016174	0.1741	0.076599	-0.12924	-0.012512	0.8252	0.0177	0.14648	0.68024	-0.64148	-0.048676	-0.010223	-0.19684	1.0863	-0.016327	0.019989	-0.011292	-0.15961	0.077667	1.7322	0.43121	-0.007935	-0.003815
9.636	0.017242	0.98846	-0.067902	0.018005	-0.063934	-0.17609	-0.27786	0.020142	0.22598	-0.002441	0.49301	0.066681	-0.048218	0.12299	0.34286	0.017395	0.11322	0.69412	-0.62943	-0.12314	-0.016022	-0.19547	1.1838	-0.020599	0.013123	-0.013123	0.014343	0.033264	0.9053	-0.34546	0.004425	-0.002747
9.637	0.017853	1.011	-0.20355	0.009308	-0.14572	-0.21164	-0.2121	0.028381	0.17014	-0.007935	0.57404	0.059814	-0.041046	0.23117	0.54047	0.006561	0.057678	0.7106	-0.63492	-0.11353	-0.022736	-0.16937	1.2549	-0.01709	0.014648	-0.02182	0.20538	-0.071106	0.82596	-0.96786	0.002441	-0.01297
9.638	0.034637	0.95108	-0.18723	-0.011902	-0.063782	-0.31815	-0.19547	0.020752	0.12665	0.03006	0.46539	0.046234	0.078735	0.14893	0.95642	0.039215	0.008392	0.79254	-0.64041	-0.09552	-0.031586	-0.16144	1.1943	-0.031586	-0.005646	-0.018311	0.26077	0.1152	0.82718	-0.98572	-0.000763	0.002136
9.639	0.039978	0.91049	-0.062714	-0.006409	-0.06012	-0.32105	-0.098724	-0.019226	0.11963	0.014343	-0.013275	0.040283	-0.027771	0.1532	0.60288	0.005646	-0.030975	0.79575	-0.75409	-0.10895	-0.036011	-0.097351	1.1595	-0.0737	-0.031586	-0.009003	0.18036	0.1442	0.85251	-0.45227	0.001526	-0.000763
9.64	0.037842	0.73517	-0.15182	0.002747	-0.019836	-0.51315	-0.015106	-0.010223	0.15091	-0.014801	-0.37811	0.023956	-0.15823	0.12833	-0.91095	0.013123	-0.055389	0.82611	-0.77621	-0.12375	-0.010834	-0.12558	1.1375	-0.034637	-0.036163	-0.002136	-0.031128	0.074158	0.77805	0.17487	-0.001221	-0.015259
9.641	0.036163	0.59799	-0.02243	0.01297	0.086365	-0.36468	-0.03891	-0.006561	0.18417	-0.078278	-0.49972	0.007477	0.016785	0.15457	-1.8456	0.011902	-0.077515	0.82718	-0.66818	-0.17471	-0.022278	-0.16983	1.2106	-0.070648	-0.014954	0.01297	-0.19547	0.014496	0.20218	0.39246	-0.001221	-0.009613
9.642	0.029907	0.46967	-0.077972	0.009613	0.03006	-0.046234	-0.064545	0.005188	0.25391	-0.041809	-0.4686	-0.004883	0.031128	0.055542	-1.3181	-0.00946	-0.055084	0.77805	-0.41519	-0.084991	-0.032196	-0.15106	1.2503	-0.20645	-0.030365	0.009766	-0.13886	-0.003662	-0.21393	-0.24338	0.004425	-0.014648
9.643	0.021057	0.37216	-0.020294	0.027618	-0.037079	0.10834	-0.064087	0.014343	0.34821	0.031128	-0.12268	-0.012665	-0.18387	-0.177	-0.84045	-0.017548	-0.046844	0.79727	-0.1947	0.15198	-0.032959	-0.19104	1.0672	-0.1738	-0.00351	0.025177	-0.12375	-0.022278	0.028687	-0.66681	-0.005493	-0.017548
